<?xml version="1.0" encoding="utf-8"?>
<!-- Generator: Adobe Illustrator 21.1.0, SVG Export Plug-In . SVG Version: 6.00 Build 0)  -->
<svg version="1.0" id="Layer_1" xmlns="http://www.w3.org/2000/svg" xmlns:xlink="http://www.w3.org/1999/xlink" x="0px" y="0px"
	 viewBox="0 0 444 100" style="enable-background:new 0 0 444 100;" xml:space="preserve">
<style type="text/css">
	.st0{fill:#154B97;}
	.st1{fill:#FFD800;}
	.st2{fill:#FFFFFF;}
	.st3{fill:#00AF5C;}
	.st4{fill:#FF4045;}
	.st5{fill:#00C7EF;}
	.st6{fill:#FFD300;}
	.st7{fill:#A7A7A7;}
</style>
<g>
	<path class="st0" d="M62.9,86h-46c-6.6,0-12-5.4-12-12V28c0-6.6,5.4-12,12-12h46c6.6,0,12,5.4,12,12v46C74.9,80.6,69.5,86,62.9,86z
		"/>
</g>
<g>
	<g>
		<circle class="st1" cx="24.6" cy="35" r="12"/>
		<path class="st2" d="M24.6,48c-7.2,0-13-5.8-13-13s5.8-13,13-13s13,5.8,13,13S31.8,48,24.6,48z M24.6,24c-6.1,0-11,4.9-11,11
			s4.9,11,11,11s11-4.9,11-11S30.7,24,24.6,24z"/>
	</g>
	<g>
		<circle class="st1" cx="55.1" cy="35" r="12"/>
		<path class="st2" d="M55.1,48c-7.2,0-13-5.8-13-13s5.8-13,13-13s13,5.8,13,13S62.3,48,55.1,48z M55.1,24c-6.1,0-11,4.9-11,11
			s4.9,11,11,11s11-4.9,11-11S61.2,24,55.1,24z"/>
	</g>
	<g>
		<circle class="st3" cx="55.1" cy="67" r="12"/>
		<path class="st2" d="M55.1,80c-7.2,0-13-5.8-13-13s5.8-13,13-13s13,5.8,13,13S62.3,80,55.1,80z M55.1,56c-6.1,0-11,4.9-11,11
			s4.9,11,11,11s11-4.9,11-11S61.2,56,55.1,56z"/>
	</g>
	<g>
		<circle class="st4" cx="24.6" cy="67" r="12"/>
		<path class="st2" d="M24.6,80c-7.2,0-13-5.8-13-13s5.8-13,13-13s13,5.8,13,13S31.8,80,24.6,80z M24.6,56c-6.1,0-11,4.9-11,11
			s4.9,11,11,11s11-4.9,11-11S30.7,56,24.6,56z"/>
	</g>
</g>
<g>
	<path d="M90,14.8c1-0.2,2.4-0.3,3.7-0.3c2,0,3.4,0.4,4.3,1.2c0.7,0.7,1.2,1.7,1.2,2.8c0,2-1.2,3.3-2.8,3.8v0.1
		c1.1,0.4,1.8,1.5,2.2,3c0.5,2.1,0.8,3.5,1.1,4.1h-2c-0.2-0.4-0.6-1.7-1-3.5c-0.4-2-1.2-2.8-3-2.9h-1.8v6.4H90V14.8z M91.9,21.5h2
		c2,0,3.3-1.1,3.3-2.8c0-1.9-1.4-2.8-3.4-2.8c-0.9,0-1.6,0.1-1.9,0.2V21.5z"/>
	<path d="M111.5,24c0,3.9-2.7,5.7-5.3,5.7c-2.9,0-5.1-2.1-5.1-5.5c0-3.6,2.3-5.7,5.3-5.7C109.4,18.5,111.5,20.8,111.5,24z
		 M103.1,24.1c0,2.3,1.3,4.1,3.2,4.1c1.8,0,3.2-1.7,3.2-4.1c0-1.8-0.9-4.1-3.2-4.1C104,20,103.1,22.1,103.1,24.1z"/>
	<path d="M123.6,24c0,3.9-2.7,5.7-5.3,5.7c-2.9,0-5.1-2.1-5.1-5.5c0-3.6,2.3-5.7,5.3-5.7C121.5,18.5,123.6,20.8,123.6,24z
		 M115.1,24.1c0,2.3,1.3,4.1,3.2,4.1c1.8,0,3.2-1.7,3.2-4.1c0-1.8-0.9-4.1-3.2-4.1C116.1,20,115.1,22.1,115.1,24.1z"/>
	<path d="M126,21.7c0-1.1,0-2-0.1-2.9h1.7l0.1,1.7h0.1c0.6-1,1.6-2,3.3-2c1.5,0,2.6,0.9,3,2.1h0c0.3-0.6,0.7-1.1,1.2-1.4
		c0.6-0.5,1.3-0.7,2.4-0.7c1.4,0,3.5,0.9,3.5,4.6v6.3h-1.9v-6c0-2-0.7-3.3-2.3-3.3c-1.1,0-2,0.8-2.3,1.8c-0.1,0.3-0.2,0.6-0.2,1v6.6
		h-1.9V23c0-1.7-0.7-2.9-2.2-2.9c-1.2,0-2.1,1-2.4,1.9c-0.1,0.3-0.2,0.6-0.2,0.9v6.4H126V21.7z"/>
	<path d="M144.1,27.4c0.6,0.4,1.6,0.8,2.6,0.8c1.4,0,2.1-0.7,2.1-1.6c0-0.9-0.6-1.4-2-2c-1.9-0.7-2.8-1.7-2.8-3
		c0-1.7,1.4-3.1,3.7-3.1c1.1,0,2,0.3,2.6,0.7l-0.5,1.4c-0.4-0.3-1.2-0.6-2.2-0.6c-1.1,0-1.8,0.7-1.8,1.5c0,0.9,0.6,1.3,2,1.8
		c1.8,0.7,2.8,1.6,2.8,3.2c0,1.9-1.5,3.2-4,3.2c-1.2,0-2.2-0.3-3-0.7L144.1,27.4z"/>
	<path d="M159.7,16.2h-4.5v-1.6h11v1.6h-4.5v13.2h-1.9V16.2z"/>
	<path d="M175.9,24c0,3.9-2.7,5.7-5.3,5.7c-2.9,0-5.1-2.1-5.1-5.5c0-3.6,2.3-5.7,5.3-5.7C173.8,18.5,175.9,20.8,175.9,24z
		 M167.4,24.1c0,2.3,1.3,4.1,3.2,4.1c1.8,0,3.2-1.7,3.2-4.1c0-1.8-0.9-4.1-3.2-4.1C168.4,20,167.4,22.1,167.4,24.1z"/>
	<path d="M194.3,28.8c-0.9,0.3-2.6,0.8-4.6,0.8c-2.2,0-4.1-0.6-5.5-2c-1.3-1.2-2.1-3.2-2.1-5.5c0-4.4,3.1-7.7,8-7.7
		c1.7,0,3.1,0.4,3.7,0.7l-0.5,1.6c-0.8-0.4-1.8-0.6-3.3-0.6c-3.6,0-6,2.2-6,6c0,3.8,2.3,6,5.7,6c1.3,0,2.1-0.2,2.6-0.4v-4.4h-3v-1.5
		h4.9V28.8z"/>
	<path d="M206.9,24c0,3.9-2.7,5.7-5.3,5.7c-2.9,0-5.1-2.1-5.1-5.5c0-3.6,2.3-5.7,5.3-5.7C204.8,18.5,206.9,20.8,206.9,24z
		 M198.5,24.1c0,2.3,1.3,4.1,3.2,4.1c1.8,0,3.2-1.7,3.2-4.1c0-1.8-0.9-4.1-3.2-4.1S198.5,22.1,198.5,24.1z"/>
	<path d="M224.4,28.9c-0.7,0.4-2.1,0.7-3.9,0.7c-4.2,0-7.3-2.6-7.3-7.5c0-4.6,3.1-7.8,7.7-7.8c1.8,0,3,0.4,3.5,0.7l-0.5,1.6
		c-0.7-0.4-1.8-0.6-3-0.6c-3.5,0-5.8,2.2-5.8,6.1c0,3.6,2.1,6,5.7,6c1.2,0,2.4-0.2,3.1-0.6L224.4,28.9z"/>
	<path d="M236.2,24c0,3.9-2.7,5.7-5.3,5.7c-2.9,0-5.1-2.1-5.1-5.5c0-3.6,2.3-5.7,5.3-5.7C234.1,18.5,236.2,20.8,236.2,24z
		 M227.7,24.1c0,2.3,1.3,4.1,3.2,4.1c1.8,0,3.2-1.7,3.2-4.1c0-1.8-0.9-4.1-3.2-4.1C228.7,20,227.7,22.1,227.7,24.1z"/>
	<path d="M247.5,26.5c0,1.1,0,2.1,0.1,2.9h-1.7l-0.1-1.7h0c-0.5,0.9-1.6,2-3.5,2c-1.7,0-3.7-0.9-3.7-4.7v-6.2h1.9v5.9
		c0,2,0.6,3.4,2.4,3.4c1.3,0,2.2-0.9,2.6-1.8c0.1-0.3,0.2-0.6,0.2-1v-6.5h1.9V26.5z"/>
	<path d="M250.7,22.3c0-1.4,0-2.5-0.1-3.5h1.7l0.1,1.8h0c0.8-1.3,2-2.1,3.8-2.1c2.6,0,4.5,2.2,4.5,5.4c0,3.8-2.3,5.7-4.8,5.7
		c-1.4,0-2.6-0.6-3.3-1.7h0v5.8h-1.9V22.3z M252.7,25.1c0,0.3,0,0.5,0.1,0.8c0.4,1.3,1.5,2.3,2.9,2.3c2,0,3.2-1.7,3.2-4.1
		c0-2.1-1.1-4-3.2-4c-1.3,0-2.6,0.9-2.9,2.4c-0.1,0.2-0.1,0.5-0.1,0.8V25.1z"/>
	<path d="M272.9,24c0,3.9-2.7,5.7-5.3,5.7c-2.9,0-5.1-2.1-5.1-5.5c0-3.6,2.3-5.7,5.3-5.7C270.8,18.5,272.9,20.8,272.9,24z
		 M264.4,24.1c0,2.3,1.3,4.1,3.2,4.1c1.8,0,3.2-1.7,3.2-4.1c0-1.8-0.9-4.1-3.2-4.1C265.4,20,264.4,22.1,264.4,24.1z"/>
	<path d="M275.3,21.7c0-1.1,0-2-0.1-2.9h1.7l0.1,1.8h0c0.5-1,1.8-2,3.5-2c1.5,0,3.8,0.9,3.8,4.5v6.4h-1.9v-6.1
		c0-1.7-0.6-3.1-2.5-3.1c-1.3,0-2.3,0.9-2.6,2c-0.1,0.2-0.1,0.6-0.1,0.9v6.4h-1.9V21.7z"/>
	<path d="M294.7,24.8l-1.5,4.7h-2l5-14.8h2.3l5.1,14.8h-2l-1.6-4.7H294.7z M299.5,23.3l-1.5-4.3c-0.3-1-0.6-1.8-0.8-2.7h0
		c-0.2,0.9-0.5,1.8-0.7,2.7l-1.5,4.3H299.5z"/>
	<path d="M305.6,22.3c0-1.4,0-2.5-0.1-3.5h1.7l0.1,1.8h0c0.8-1.3,2-2.1,3.8-2.1c2.6,0,4.5,2.2,4.5,5.4c0,3.8-2.3,5.7-4.8,5.7
		c-1.4,0-2.6-0.6-3.3-1.7h0v5.8h-1.9V22.3z M307.5,25.1c0,0.3,0,0.5,0.1,0.8c0.4,1.3,1.5,2.3,2.9,2.3c2,0,3.2-1.7,3.2-4.1
		c0-2.1-1.1-4-3.2-4c-1.3,0-2.6,0.9-2.9,2.4c-0.1,0.2-0.1,0.5-0.1,0.8V25.1z"/>
	<path d="M318.1,22.3c0-1.4,0-2.5-0.1-3.5h1.7l0.1,1.8h0c0.8-1.3,2-2.1,3.8-2.1c2.6,0,4.5,2.2,4.5,5.4c0,3.8-2.3,5.7-4.8,5.7
		c-1.4,0-2.6-0.6-3.3-1.7h0v5.8h-1.9V22.3z M320,25.1c0,0.3,0,0.5,0.1,0.8c0.4,1.3,1.5,2.3,2.9,2.3c2,0,3.2-1.7,3.2-4.1
		c0-2.1-1.1-4-3.2-4c-1.3,0-2.6,0.9-2.9,2.4c-0.1,0.2-0.1,0.5-0.1,0.8V25.1z"/>
</g>
<g>
	<path d="M97.1,48.2c-0.6,0.2-1.7,0.6-3.1,0.6c-1.5,0-2.8-0.4-3.8-1.3c-0.9-0.8-1.4-2.2-1.4-3.8c0-3,2.1-5.2,5.5-5.2
		c1.2,0,2.1,0.3,2.5,0.5l-0.3,1.1c-0.5-0.2-1.2-0.4-2.2-0.4c-2.5,0-4.1,1.5-4.1,4.1c0,2.6,1.5,4.1,3.9,4.1c0.9,0,1.4-0.1,1.7-0.3v-3
		h-2.1v-1h3.3V48.2z"/>
	<path d="M99.8,45.2c0,1.8,1.2,2.5,2.5,2.5c0.9,0,1.5-0.2,2-0.4l0.2,0.9c-0.5,0.2-1.3,0.4-2.4,0.4c-2.2,0-3.6-1.5-3.6-3.7
		s1.3-3.9,3.4-3.9c2.4,0,3,2.1,3,3.4c0,0.3,0,0.5,0,0.6H99.8z M103.7,44.3c0-0.8-0.3-2.1-1.8-2.1c-1.3,0-1.9,1.2-2,2.1H103.7z"/>
	<path d="M108.2,39.3v2.1h1.9v1h-1.9v3.9c0,0.9,0.3,1.4,1,1.4c0.3,0,0.6,0,0.8-0.1l0.1,1c-0.3,0.1-0.7,0.2-1.2,0.2
		c-0.6,0-1.1-0.2-1.4-0.6c-0.4-0.4-0.5-1-0.5-1.9v-4h-1.1v-1h1.1v-1.7L108.2,39.3z"/>
	<path d="M119.9,48.3c-0.3,0.2-1.1,0.4-2.1,0.4c-2.2,0-3.6-1.5-3.6-3.7c0-2.2,1.5-3.9,3.9-3.9c0.8,0,1.5,0.2,1.8,0.4l-0.3,1
		c-0.3-0.2-0.8-0.3-1.5-0.3c-1.7,0-2.6,1.2-2.6,2.7c0,1.7,1.1,2.7,2.5,2.7c0.8,0,1.2-0.2,1.6-0.4L119.9,48.3z"/>
	<path d="M128,44.9c0,2.7-1.9,3.9-3.6,3.9c-2,0-3.5-1.4-3.5-3.7c0-2.4,1.6-3.9,3.6-3.9C126.6,41.2,128,42.7,128,44.9z M122.2,45
		c0,1.6,0.9,2.8,2.2,2.8c1.3,0,2.2-1.2,2.2-2.8c0-1.2-0.6-2.8-2.2-2.8C122.9,42.2,122.2,43.6,122.2,45z"/>
	<path d="M135.7,46.6c0,0.8,0,1.4,0.1,2h-1.2l-0.1-1.2h0c-0.3,0.6-1.1,1.4-2.4,1.4c-1.1,0-2.5-0.6-2.5-3.2v-4.2h1.3v4
		c0,1.4,0.4,2.3,1.6,2.3c0.9,0,1.5-0.6,1.7-1.2c0.1-0.2,0.1-0.4,0.1-0.7v-4.5h1.3V46.6z"/>
	<path d="M137.9,43.7c0-0.9,0-1.7-0.1-2.4h1.2l0.1,1.2h0c0.5-0.9,1.4-1.4,2.6-1.4c1.8,0,3.1,1.5,3.1,3.7c0,2.6-1.6,3.9-3.3,3.9
		c-1,0-1.8-0.4-2.2-1.1h0v3.9h-1.3V43.7z M139.2,45.7c0,0.2,0,0.4,0.1,0.5c0.2,0.9,1,1.5,2,1.5c1.4,0,2.2-1.1,2.2-2.8
		c0-1.5-0.8-2.7-2.2-2.7c-0.9,0-1.7,0.6-2,1.6c0,0.2-0.1,0.4-0.1,0.5V45.7z"/>
	<path d="M153,44.9c0,2.7-1.9,3.9-3.6,3.9c-2,0-3.5-1.4-3.5-3.7c0-2.4,1.6-3.9,3.6-3.9C151.6,41.2,153,42.7,153,44.9z M147.2,45
		c0,1.6,0.9,2.8,2.2,2.8c1.3,0,2.2-1.2,2.2-2.8c0-1.2-0.6-2.8-2.2-2.8C147.9,42.2,147.2,43.6,147.2,45z"/>
	<path d="M154.7,43.3c0-0.8,0-1.4-0.1-2h1.2l0.1,1.2h0c0.4-0.7,1.2-1.4,2.4-1.4c1,0,2.6,0.6,2.6,3.1v4.3h-1.3v-4.2
		c0-1.2-0.4-2.1-1.7-2.1c-0.9,0-1.5,0.6-1.8,1.3c-0.1,0.2-0.1,0.4-0.1,0.6v4.4h-1.3V43.3z"/>
	<path d="M162.8,47.3c0.4,0.3,1.1,0.5,1.7,0.5c1,0,1.4-0.5,1.4-1.1c0-0.6-0.4-1-1.4-1.3c-1.3-0.5-1.9-1.2-1.9-2.1
		c0-1.2,0.9-2.1,2.5-2.1c0.7,0,1.4,0.2,1.8,0.5l-0.3,1c-0.3-0.2-0.8-0.4-1.5-0.4c-0.8,0-1.2,0.4-1.2,1c0,0.6,0.4,0.9,1.4,1.2
		c1.3,0.5,1.9,1.1,1.9,2.2c0,1.3-1,2.2-2.7,2.2c-0.8,0-1.5-0.2-2-0.5L162.8,47.3z"/>
	<path d="M178.4,38v8.8c0,0.6,0,1.4,0.1,1.9h-1.2l-0.1-1.3h0c-0.4,0.8-1.3,1.4-2.5,1.4c-1.8,0-3.1-1.5-3.1-3.7
		c0-2.4,1.5-3.9,3.3-3.9c1.1,0,1.9,0.5,2.2,1.1h0V38H178.4z M177.1,44.3c0-0.2,0-0.4-0.1-0.6c-0.2-0.8-0.9-1.5-1.9-1.5
		c-1.4,0-2.2,1.2-2.2,2.8c0,1.5,0.7,2.7,2.1,2.7c0.9,0,1.7-0.6,1.9-1.6c0-0.2,0.1-0.4,0.1-0.6V44.3z"/>
	<path d="M181.3,45.2c0,1.8,1.2,2.5,2.5,2.5c0.9,0,1.5-0.2,2-0.4l0.2,0.9c-0.5,0.2-1.3,0.4-2.4,0.4c-2.2,0-3.6-1.5-3.6-3.7
		s1.3-3.9,3.4-3.9c2.4,0,3,2.1,3,3.4c0,0.3,0,0.5,0,0.6H181.3z M185.2,44.3c0-0.8-0.3-2.1-1.8-2.1c-1.3,0-1.9,1.2-2,2.1H185.2z"/>
	<path d="M188.1,38h1.3v10.6h-1.3V38z"/>
	<path d="M193.1,39.3c0,0.5-0.3,0.8-0.8,0.8c-0.5,0-0.8-0.4-0.8-0.8c0-0.5,0.3-0.8,0.8-0.8C192.8,38.5,193.1,38.8,193.1,39.3z
		 M191.6,48.6v-7.3h1.3v7.3H191.6z"/>
	<path d="M195.6,41.3l1.4,4.1c0.2,0.7,0.4,1.3,0.6,1.9h0c0.2-0.6,0.4-1.2,0.6-1.9l1.4-4.1h1.4l-2.9,7.3H197l-2.8-7.3H195.6z"/>
	<path d="M202.9,45.2c0,1.8,1.2,2.5,2.5,2.5c0.9,0,1.5-0.2,2-0.4l0.2,0.9c-0.5,0.2-1.3,0.4-2.4,0.4c-2.2,0-3.6-1.5-3.6-3.7
		s1.3-3.9,3.4-3.9c2.4,0,3,2.1,3,3.4c0,0.3,0,0.5,0,0.6H202.9z M206.8,44.3c0-0.8-0.3-2.1-1.8-2.1c-1.3,0-1.9,1.2-2,2.1H206.8z"/>
	<path d="M209.7,43.6c0-0.9,0-1.6-0.1-2.3h1.2l0,1.4h0.1c0.3-1,1.1-1.6,2-1.6c0.2,0,0.3,0,0.4,0v1.2c-0.1,0-0.3,0-0.5,0
		c-0.9,0-1.6,0.7-1.8,1.7c0,0.2-0.1,0.4-0.1,0.6v3.9h-1.3V43.6z"/>
	<path d="M215.2,45.2c0,1.8,1.2,2.5,2.5,2.5c0.9,0,1.5-0.2,2-0.4l0.2,0.9c-0.5,0.2-1.3,0.4-2.4,0.4c-2.2,0-3.6-1.5-3.6-3.7
		s1.3-3.9,3.4-3.9c2.4,0,3,2.1,3,3.4c0,0.3,0,0.5,0,0.6H215.2z M219.1,44.3c0-0.8-0.3-2.1-1.8-2.1c-1.3,0-1.9,1.2-2,2.1H219.1z"/>
	<path d="M228.3,38v8.8c0,0.6,0,1.4,0.1,1.9h-1.2l-0.1-1.3h0c-0.4,0.8-1.3,1.4-2.5,1.4c-1.8,0-3.1-1.5-3.1-3.7
		c0-2.4,1.5-3.9,3.3-3.9c1.1,0,1.9,0.5,2.2,1.1h0V38H228.3z M226.9,44.3c0-0.2,0-0.4-0.1-0.6c-0.2-0.8-0.9-1.5-1.9-1.5
		c-1.4,0-2.2,1.2-2.2,2.8c0,1.5,0.7,2.7,2.1,2.7c0.9,0,1.7-0.6,1.9-1.6c0-0.2,0.1-0.4,0.1-0.6V44.3z"/>
	<path d="M233.6,43.6c0-0.9,0-1.6-0.1-2.3h1.2l0,1.4h0.1c0.3-1,1.1-1.6,2-1.6c0.2,0,0.3,0,0.4,0v1.2c-0.1,0-0.3,0-0.5,0
		c-0.9,0-1.6,0.7-1.8,1.7c0,0.2-0.1,0.4-0.1,0.6v3.9h-1.3V43.6z"/>
	<path d="M240.1,39.3c0,0.5-0.3,0.8-0.8,0.8c-0.5,0-0.8-0.4-0.8-0.8c0-0.5,0.3-0.8,0.8-0.8C239.7,38.5,240.1,38.8,240.1,39.3z
		 M238.6,48.6v-7.3h1.3v7.3H238.6z"/>
	<path d="M248.4,41.3c0,0.5-0.1,1.1-0.1,2v4.2c0,1.7-0.3,2.7-1,3.3c-0.7,0.7-1.7,0.9-2.6,0.9c-0.9,0-1.8-0.2-2.4-0.6l0.3-1
		c0.5,0.3,1.2,0.6,2.1,0.6c1.3,0,2.3-0.7,2.3-2.5v-0.8h0c-0.4,0.7-1.2,1.2-2.3,1.2c-1.8,0-3.1-1.5-3.1-3.5c0-2.5,1.6-3.9,3.3-3.9
		c1.3,0,2,0.7,2.3,1.3h0l0.1-1.1H248.4z M247,44.2c0-0.2,0-0.4-0.1-0.6c-0.2-0.8-0.9-1.4-1.8-1.4c-1.3,0-2.2,1.1-2.2,2.7
		c0,1.4,0.7,2.6,2.1,2.6c0.8,0,1.5-0.5,1.8-1.3c0.1-0.2,0.1-0.5,0.1-0.7V44.2z"/>
	<path d="M250.5,38h1.3v4.5h0c0.2-0.4,0.5-0.7,0.9-0.9c0.4-0.2,0.9-0.4,1.4-0.4c1,0,2.5,0.6,2.5,3.1v4.3h-1.3v-4.2
		c0-1.2-0.4-2.2-1.7-2.2c-0.9,0-1.5,0.6-1.8,1.3c-0.1,0.2-0.1,0.4-0.1,0.6v4.4h-1.3V38z"/>
	<path d="M260.3,39.3v2.1h1.9v1h-1.9v3.9c0,0.9,0.3,1.4,1,1.4c0.3,0,0.6,0,0.8-0.1l0.1,1c-0.3,0.1-0.7,0.2-1.2,0.2
		c-0.6,0-1.1-0.2-1.4-0.6c-0.4-0.4-0.5-1-0.5-1.9v-4h-1.1v-1h1.1v-1.7L260.3,39.3z"/>
	<path d="M268.5,39.3v2.1h1.9v1h-1.9v3.9c0,0.9,0.3,1.4,1,1.4c0.3,0,0.6,0,0.8-0.1l0.1,1c-0.3,0.1-0.7,0.2-1.2,0.2
		c-0.6,0-1.1-0.2-1.4-0.6c-0.4-0.4-0.5-1-0.5-1.9v-4h-1.1v-1h1.1v-1.7L268.5,39.3z"/>
	<path d="M278.3,44.9c0,2.7-1.9,3.9-3.6,3.9c-2,0-3.5-1.4-3.5-3.7c0-2.4,1.6-3.9,3.6-3.9C276.9,41.2,278.3,42.7,278.3,44.9z
		 M272.6,45c0,1.6,0.9,2.8,2.2,2.8c1.3,0,2.2-1.2,2.2-2.8c0-1.2-0.6-2.8-2.2-2.8C273.3,42.2,272.6,43.6,272.6,45z"/>
	<path d="M283.7,41.3l1.6,4.3c0.2,0.5,0.3,1,0.5,1.5h0c0.1-0.4,0.3-1,0.5-1.5l1.4-4.3h1.4l-2,5.2c-0.9,2.5-1.6,3.8-2.5,4.5
		c-0.6,0.6-1.3,0.8-1.6,0.9l-0.3-1.1c0.3-0.1,0.8-0.3,1.2-0.6c0.4-0.3,0.8-0.8,1.1-1.5c0.1-0.1,0.1-0.2,0.1-0.3c0-0.1,0-0.2-0.1-0.3
		l-2.7-6.7H283.7z"/>
	<path d="M296.7,44.9c0,2.7-1.9,3.9-3.6,3.9c-2,0-3.5-1.4-3.5-3.7c0-2.4,1.6-3.9,3.6-3.9C295.3,41.2,296.7,42.7,296.7,44.9z
		 M290.9,45c0,1.6,0.9,2.8,2.2,2.8c1.3,0,2.2-1.2,2.2-2.8c0-1.2-0.6-2.8-2.2-2.8C291.6,42.2,290.9,43.6,290.9,45z"/>
	<path d="M304.4,46.6c0,0.8,0,1.4,0.1,2h-1.2l-0.1-1.2h0c-0.3,0.6-1.1,1.4-2.4,1.4c-1.1,0-2.5-0.6-2.5-3.2v-4.2h1.3v4
		c0,1.4,0.4,2.3,1.6,2.3c0.9,0,1.5-0.6,1.7-1.2c0.1-0.2,0.1-0.4,0.1-0.7v-4.5h1.3V46.6z"/>
	<path d="M306.6,43.6c0-0.9,0-1.6-0.1-2.3h1.2l0,1.4h0.1c0.3-1,1.1-1.6,2-1.6c0.2,0,0.3,0,0.4,0v1.2c-0.1,0-0.3,0-0.5,0
		c-0.9,0-1.6,0.7-1.8,1.7c0,0.2-0.1,0.4-0.1,0.6v3.9h-1.3V43.6z"/>
	<path d="M314.7,43.7c0-0.9,0-1.7-0.1-2.4h1.2l0.1,1.2h0c0.5-0.9,1.4-1.4,2.6-1.4c1.8,0,3.1,1.5,3.1,3.7c0,2.6-1.6,3.9-3.3,3.9
		c-1,0-1.8-0.4-2.2-1.1h0v3.9h-1.3V43.7z M316,45.7c0,0.2,0,0.4,0.1,0.5c0.2,0.9,1,1.5,2,1.5c1.4,0,2.2-1.1,2.2-2.8
		c0-1.5-0.8-2.7-2.2-2.7c-0.9,0-1.7,0.6-2,1.6c0,0.2-0.1,0.4-0.1,0.5V45.7z"/>
	<path d="M323.2,38h1.3v4.5h0c0.2-0.4,0.5-0.7,0.9-0.9c0.4-0.2,0.9-0.4,1.4-0.4c1,0,2.5,0.6,2.5,3.1v4.3h-1.3v-4.2
		c0-1.2-0.4-2.2-1.7-2.2c-0.9,0-1.5,0.6-1.8,1.3c-0.1,0.2-0.1,0.4-0.1,0.6v4.4h-1.3V38z"/>
	<path d="M338.1,44.9c0,2.7-1.9,3.9-3.6,3.9c-2,0-3.5-1.4-3.5-3.7c0-2.4,1.6-3.9,3.6-3.9C336.7,41.2,338.1,42.7,338.1,44.9z
		 M332.4,45c0,1.6,0.9,2.8,2.2,2.8c1.3,0,2.2-1.2,2.2-2.8c0-1.2-0.6-2.8-2.2-2.8C333,42.2,332.4,43.6,332.4,45z"/>
	<path d="M339.8,43.3c0-0.8,0-1.4-0.1-2h1.2l0.1,1.2h0c0.4-0.7,1.2-1.4,2.4-1.4c1,0,2.6,0.6,2.6,3.1v4.3h-1.3v-4.2
		c0-1.2-0.4-2.1-1.7-2.1c-0.9,0-1.5,0.6-1.8,1.3c-0.1,0.2-0.1,0.4-0.1,0.6v4.4h-1.3V43.3z"/>
	<path d="M348.8,45.2c0,1.8,1.2,2.5,2.5,2.5c0.9,0,1.5-0.2,2-0.4l0.2,0.9c-0.5,0.2-1.3,0.4-2.4,0.4c-2.2,0-3.6-1.5-3.6-3.7
		s1.3-3.9,3.4-3.9c2.4,0,3,2.1,3,3.4c0,0.3,0,0.5,0,0.6H348.8z M352.7,44.3c0-0.8-0.3-2.1-1.8-2.1c-1.3,0-1.9,1.2-2,2.1H352.7z"/>
	<path d="M355.4,47.8c0-0.5,0.4-0.9,0.9-0.9c0.5,0,0.9,0.4,0.9,0.9c0,0.5-0.3,0.9-0.9,0.9C355.7,48.8,355.4,48.4,355.4,47.8z
		 M355.7,45.7l-0.2-7.2h1.4l-0.2,7.2H355.7z"/>
</g>
<g>
	<path class="st5" d="M376.9,41.7h9.1v1.8h-6.9v5.6h6.4v1.8h-6.4v7.6h-2.2V41.7z"/>
	<path class="st5" d="M389.1,41.9c1.1-0.2,2.7-0.3,4.2-0.3c2.3,0,3.8,0.4,4.9,1.4c0.8,0.8,1.3,1.9,1.3,3.2c0,2.2-1.4,3.7-3.2,4.3
		v0.1c1.3,0.5,2.1,1.7,2.5,3.4c0.5,2.3,0.9,4,1.3,4.6h-2.2c-0.3-0.5-0.6-1.9-1.1-4c-0.5-2.3-1.4-3.2-3.4-3.3h-2v7.3h-2.2V41.9z
		 M391.2,49.6h2.2c2.3,0,3.8-1.3,3.8-3.2c0-2.2-1.6-3.1-3.9-3.1c-1,0-1.8,0.1-2.1,0.2V49.6z"/>
	<path class="st5" d="M411.2,50.7h-6.5v6.1h7.3v1.8h-9.5V41.7h9.1v1.8h-6.9v5.3h6.5V50.7z"/>
	<path class="st5" d="M423.5,50.7H417v6.1h7.3v1.8h-9.5V41.7h9.1v1.8H417v5.3h6.5V50.7z"/>
</g>
<g>
	<polygon class="st6" points="96.5,67 99.3,72.7 105.5,73.6 101,78 102.1,84.2 96.5,81.3 90.9,84.2 92,78 87.5,73.6 93.7,72.7 	"/>
</g>
<g>
	<polygon class="st6" points="116.5,67 119.3,72.7 125.5,73.6 121,78 122.1,84.2 116.5,81.3 110.9,84.2 112,78 107.5,73.6 
		113.7,72.7 	"/>
</g>
<g>
	<polygon class="st6" points="136.5,67 139.3,72.7 145.5,73.6 141,78 142.1,84.2 136.5,81.3 130.9,84.2 132,78 127.5,73.6 
		133.7,72.7 	"/>
</g>
<g>
	<polygon class="st6" points="156.5,67 159.3,72.7 165.5,73.6 161,78 162.1,84.2 156.5,81.3 150.9,84.2 152,78 147.5,73.6 
		153.7,72.7 	"/>
</g>
<g>
	<polygon class="st6" points="176.5,67 179.3,72.7 185.5,73.6 181,78 182.1,84.2 176.5,81.3 170.9,84.2 172,78 167.5,73.6 
		173.7,72.7 	"/>
</g>
</svg>
